# xmcd
#
# Track frame offsets:
#	182
#	20877
#	41045
#	60065
#	82227
#	99705
#	116555
#	138032
#	157835
#
# Disc length: 2387 seconds
#
# Revision: 1
# Processed by: cddbd v1.5.2PL0 Copyright (c) Steve Scherf et al.
# Submitted via: EasyCDDAExtractor 15.2.5.1
#
DISCID=6d095109
DTITLE=김성호 - 3집 나만이 할 수 있는건 (1994) by oreum.com
DYEAR=1994
DGENRE=Pop
TTITLE0=나만이 할 수 있는건
TTITLE1=너를 위한 이기심으로
TTITLE2=우연한 기회였지
TTITLE3=당신은 천사와 커피를 마셔본 적이 있습니까
TTITLE4=투명에 가까운 블루
TTITLE5=짧은 이야기
TTITLE6=문득 바라본 하늘
TTITLE7=돌아갈 수는 없을까
TTITLE8=삶, 자동차, 그리고 사랑
EXTD=
EXTT0=
EXTT1=
EXTT2=
EXTT3=
EXTT4=
EXTT5=
EXTT6=
EXTT7=
EXTT8=
PLAYORDER=
